<svg width="62" height="66" viewBox="0 0 62 66" fill="none" xmlns="http://www.w3.org/2000/svg">
<path fill-rule="evenodd" clip-rule="evenodd" d="M35.82 9.81033C33.4274 6.75397 28.7824 7.93246 27.942 11.8091L25.975 20.8828C25.881 21.3164 25.4307 21.5421 25.0568 21.3431L22.8491 20.1681C20.423 18.8767 17.4822 20.1346 16.5699 22.8539L13.9029 30.8031C11.9297 36.6845 12.2975 43.1685 14.9212 48.7545C16.8932 52.9528 20.3511 56.1453 24.5342 57.6296L25.4858 57.9673C29.0652 59.2374 32.9349 59.2374 36.5143 57.9673L37.3662 57.665C41.6132 56.158 45.1238 52.9168 47.1259 48.6544L47.3066 48.2695C49.7837 42.9959 50.1912 36.8907 48.4397 31.2972C46.589 25.3869 43.7163 19.8971 39.9697 15.1111L35.82 9.81033ZM31.7177 12.7366C31.8378 12.1828 32.5014 12.0145 32.8432 12.4511L36.9928 17.7519C40.4301 22.1428 43.0657 27.1793 44.7636 32.6016C46.1901 37.1573 45.8582 42.1296 43.8407 46.4248L43.66 46.8097C42.9396 48.3433 41.9658 49.7053 40.7991 50.8398C41.6118 47.975 41.214 44.8695 39.6999 42.3366L34.814 34.1634C33.0375 31.1917 28.9624 31.1917 27.1859 34.1634L22.3 42.3366C20.7786 44.8816 20.3843 48.0048 21.2125 50.8809C20.0596 49.7647 19.0976 48.4223 18.3871 46.9097C16.2358 42.3295 15.9342 37.013 17.5522 32.1905L20.2191 24.2413C20.3495 23.8528 20.7696 23.6731 21.1162 23.8576L23.3239 25.0326C25.9409 26.4256 29.0928 24.8453 29.7507 21.8104L31.7177 12.7366ZM30.4551 36.378C30.7089 35.9535 31.291 35.9535 31.5448 36.378L36.4307 44.5513C37.3678 46.1188 37.5914 48.0525 37.0395 49.8152C36.3817 51.9158 34.717 53.4802 32.6773 53.9144L32.2753 54C31.4334 54.1793 30.5665 54.1793 29.7246 54L29.3226 53.9144C27.2829 53.4802 25.6182 51.9158 24.9604 49.8152C24.4084 48.0525 24.6321 46.1188 25.5691 44.5512L30.4551 36.378Z" fill="#474747"/>
</svg>
