<svg width="58" height="60" viewBox="0 0 58 60" fill="none" xmlns="http://www.w3.org/2000/svg">
<path d="M38.0625 23.75C38.0625 22.7145 38.874 21.875 39.875 21.875H42.2917C43.2927 21.875 44.1042 22.7145 44.1042 23.75C44.1042 24.7855 43.2927 25.625 42.2917 25.625H39.875C38.874 25.625 38.0625 24.7855 38.0625 23.75Z" fill="#474747"/>
<path d="M39.875 28.125C38.874 28.125 38.0625 28.9645 38.0625 30C38.0625 31.0355 38.874 31.875 39.875 31.875H42.2917C43.2927 31.875 44.1042 31.0355 44.1042 30C44.1042 28.9645 43.2927 28.125 42.2917 28.125H39.875Z" fill="#474747"/>
<path d="M22.3542 23.75C22.3542 22.7145 23.1656 21.875 24.1667 21.875H26.5833C27.5843 21.875 28.3958 22.7145 28.3958 23.75C28.3958 24.7855 27.5843 25.625 26.5833 25.625H24.1667C23.1656 25.625 22.3542 24.7855 22.3542 23.75Z" fill="#474747"/>
<path d="M24.1667 15.625C23.1656 15.625 22.3542 16.4645 22.3542 17.5C22.3542 18.5355 23.1656 19.375 24.1667 19.375H26.5833C27.5843 19.375 28.3958 18.5355 28.3958 17.5C28.3958 16.4645 27.5843 15.625 26.5833 15.625H24.1667Z" fill="#474747"/>
<path d="M22.3542 30C22.3542 28.9645 23.1656 28.125 24.1667 28.125H26.5833C27.5843 28.125 28.3958 28.9645 28.3958 30C28.3958 31.0355 27.5843 31.875 26.5833 31.875H24.1667C23.1656 31.875 22.3542 31.0355 22.3542 30Z" fill="#474747"/>
<path d="M16.9167 21.875C15.9156 21.875 15.1042 22.7145 15.1042 23.75C15.1042 24.7855 15.9156 25.625 16.9167 25.625H19.3333C20.3343 25.625 21.1458 24.7855 21.1458 23.75C21.1458 22.7145 20.3343 21.875 19.3333 21.875H16.9167Z" fill="#474747"/>
<path d="M15.1042 17.5C15.1042 16.4645 15.9156 15.625 16.9167 15.625H19.3333C20.3343 15.625 21.1458 16.4645 21.1458 17.5C21.1458 18.5355 20.3343 19.375 19.3333 19.375H16.9167C15.9156 19.375 15.1042 18.5355 15.1042 17.5Z" fill="#474747"/>
<path d="M16.9167 28.125C15.9156 28.125 15.1042 28.9645 15.1042 30C15.1042 31.0355 15.9156 31.875 16.9167 31.875H19.3333C20.3343 31.875 21.1458 31.0355 21.1458 30C21.1458 28.9645 20.3343 28.125 19.3333 28.125H16.9167Z" fill="#474747"/>
<path fill-rule="evenodd" clip-rule="evenodd" d="M7.85416 11.25C7.85416 8.83375 9.74762 6.875 12.0833 6.875H31.4167C33.7524 6.875 35.6458 8.83375 35.6458 11.25V15.625H45.9167C48.2524 15.625 50.1458 17.5838 50.1458 20V47.5C50.1458 49.9162 48.2524 51.875 45.9167 51.875H12.0833C9.74762 51.875 7.85416 49.9162 7.85416 47.5V11.25ZM35.6458 48.125V19.375H45.9167C46.2503 19.375 46.5208 19.6548 46.5208 20V47.5C46.5208 47.8452 46.2503 48.125 45.9167 48.125H35.6458ZM32.0208 11.25V48.125H28.3958V41.25C28.3958 38.8338 26.5024 36.875 24.1667 36.875H19.3333C16.9976 36.875 15.1042 38.8338 15.1042 41.25V48.125H12.0833C11.7497 48.125 11.4792 47.8452 11.4792 47.5V11.25C11.4792 10.9048 11.7497 10.625 12.0833 10.625H31.4167C31.7503 10.625 32.0208 10.9048 32.0208 11.25ZM18.7292 48.125H24.7708V41.25C24.7708 40.9048 24.5003 40.625 24.1667 40.625H19.3333C18.9997 40.625 18.7292 40.9048 18.7292 41.25V48.125Z" fill="#474747"/>
</svg>
