<svg width="68" height="72" viewBox="0 0 68 72" fill="none" xmlns="http://www.w3.org/2000/svg">
<path fill-rule="evenodd" clip-rule="evenodd" d="M10.0026 37.591L12.0417 35.432V58.5C12.0417 61.3995 14.2616 63.75 17 63.75H51C53.7384 63.75 55.9583 61.3995 55.9583 58.5V35.432L57.9974 37.591L61.0026 34.409L37.506 9.53037C35.5697 7.48012 32.4303 7.48011 30.4939 9.53036L6.99738 34.409L10.0026 37.591ZM34.5008 12.7123C34.2242 12.4195 33.7757 12.4195 33.4991 12.7123L16.2917 30.932V58.5C16.2917 58.9142 16.6088 59.25 17 59.25H24.7917V42C24.7917 39.1005 27.0116 36.75 29.75 36.75H38.25C40.9884 36.75 43.2083 39.1005 43.2083 42V59.25H51C51.3912 59.25 51.7083 58.9142 51.7083 58.5V30.932L34.5008 12.7123ZM38.9583 59.25V42C38.9583 41.5858 38.6412 41.25 38.25 41.25H29.75C29.3588 41.25 29.0417 41.5858 29.0417 42V59.25H38.9583Z" fill="#474747"/>
</svg>
