<svg width="73" height="68" viewBox="0 0 73 68" fill="none" xmlns="http://www.w3.org/2000/svg">
<path fill-rule="evenodd" clip-rule="evenodd" d="M36.5 6.375C32.3661 6.375 28.9326 9.16843 28.2563 12.8394C17.5229 15.4416 9.4252 24.1279 8.46099 34.7083H6.08334V38.9583H66.9167V34.7083H64.539C63.5748 24.1279 55.4771 15.4416 44.7437 12.8394C44.0674 9.16843 40.6339 6.375 36.5 6.375ZM36.5 10.625C35.2362 10.625 34.1164 11.1994 33.425 12.0832C33.9393 12.0556 34.4575 12.0417 34.9792 12.0417H38.0208C38.5425 12.0417 39.0607 12.0557 39.575 12.0832C38.8836 11.1994 37.7638 10.625 36.5 10.625ZM59.9564 34.7083C58.8148 24.3619 49.4296 16.2917 38.0208 16.2917H34.9792C23.5704 16.2917 14.1852 24.3619 13.0437 34.7083H59.9564Z" fill="#474747"/>
<path fill-rule="evenodd" clip-rule="evenodd" d="M57.3322 43.3231C55.5031 40.4833 51.5946 39.4933 48.4735 41.0791L43.0894 43.8147C42.4009 41.8191 40.3919 40.375 38.0208 40.375H18.25C15.3102 40.375 12.9271 42.5949 12.9271 45.3333V51.7912C12.9271 53.9254 14.3932 55.8202 16.5667 56.4951L26.7607 59.6603C31.1612 61.0267 35.9642 60.7087 40.113 58.7764L54.6124 52.0232C58.0663 50.4146 59.3189 46.4075 57.3322 43.3231ZM38.7813 45.3333V46.0037L37.4503 46.6799C36.4451 47.1907 35.3183 47.4583 34.1732 47.4583H27.375V51.7083H34.1732C36.0817 51.7083 37.9596 51.2622 39.6351 50.411L50.6583 44.8101C51.6313 44.3158 52.8497 44.6244 53.4199 45.5097C54.0392 46.4712 53.6487 47.7204 52.572 48.2219L38.0726 54.9751C35.0061 56.4033 31.456 56.6383 28.2035 55.6284L18.0095 52.4632C17.699 52.3667 17.4896 52.0961 17.4896 51.7912V45.3333C17.4896 44.9421 17.83 44.625 18.25 44.625H38.0208C38.4408 44.625 38.7813 44.9421 38.7813 45.3333Z" fill="#474747"/>
</svg>
